<?xml version="1.0" encoding="UTF-8"?>
<!-- Created with Inkscape (http://www.inkscape.org/) -->
<svg width="78.039mm" height="79.174mm" version="1.1" viewBox="0 0 78.039 79.174" xml:space="preserve" xmlns="http://www.w3.org/2000/svg"><g transform="translate(-308.88 -90.134)"><g fill="#00ade0" stroke-width=".26458"><path d="m321.84 106.87v44.979h6.4291c4.6478 0 6.5174 0.0878 6.7469 0.31729 0.2266 0.22656 0.31781 1.8912 0.31781 5.8115 0 6.4585 0.12071 6.2176-2.9848 5.9573-2.9255-0.24527-4.6881 0.76449-4.6881 2.6856 0 0.86681 0.85196 2.0928 1.6898 2.4314 0.30732 0.12417 2.8511 0.23337 5.6524 0.24237l5.0932 0.0165v-8.5705c0-7.5712 0.0489-8.5894 0.41858-8.7312 0.23018-0.0883 1.5312-0.16072 2.8913-0.16072 1.9518 0 2.5657 0.093 2.9125 0.43977 0.39463 0.39462 0.42994 1.2774 0.34934 8.6651l-0.0894 8.2253 4.8948 0.0754c2.6921 0.0413 5.1436 0.0138 5.4482-0.061s0.87018-0.45212 1.2568-0.83871c1.0079-1.0079 0.97837-2.5129-0.0703-3.5615-0.42534-0.42537-1.0504-0.7873-1.3891-0.8046-0.33862-0.0172-1.602-0.0471-2.8076-0.0662-1.6243-0.0257-2.2607-0.13739-2.4582-0.43149-0.16379-0.24393-0.23715-2.4655-0.18965-5.7645 0.0636-4.4241 0.14727-5.4115 0.47439-5.6183 0.22252-0.14062 3.3319-0.25328 7.0776-0.25528l6.6807-4e-3v-44.979h-21.828zm32.085 10.097c1.6042 0.0168 3.1764 0.96563 4.0432 2.7373 0.56131 1.1473 0.66413 1.6401 0.51987 2.4939-0.22352 1.323-1.0646 2.5985-2.2314 3.3848-1.1594 0.78132-3.4771 0.83154-4.6746 0.10129-2.6863-1.6381-3.1261-4.8231-0.99219-7.1851 0.90642-1.0033 2.0457-1.5005 3.1796-1.5312 0.0518-1e-3 0.1038-2e-3 0.15555-1e-3zm-20.356 0.0507c0.87714-0.0105 1.7794 0.23336 2.605 0.78186 1.069 0.71014 2.0702 2.5968 2.0702 3.9016 0 1.4053-1.0394 3.1842-2.2691 3.884-1.0086 0.57395-3.0872 0.78216-4.0809 0.40876-1.8537-0.69653-3.0263-2.6411-2.8531-4.731 0.20964-2.5279 2.2863-4.2183 4.5279-4.2452zm-4.3455 15.253c0.92267 0 1.2872 0.20638 2.8562 1.6185 2.6198 2.358 5.9192 4.4415 8.2491 5.209 1.6039 0.5283 2.5576 0.6647 4.6622 0.6687 4.2103 7e-3 6.3884-1.0611 11.18-5.4813 1.7936-1.6545 2.3396-2.0149 3.0499-2.0149 1.0796 0 1.8719 0.53847 2.2955 1.5612 0.50274 1.2137-0.0317 2.4151-1.7921 4.0292-4.2788 3.9232-7.4826 5.8916-10.901 6.6973-4.7964 1.1305-10.728-0.1421-15.447-3.314-2.5763-1.7317-5.6624-4.3999-6.1257-5.2958-0.96584-1.8677 5e-3 -3.6778 1.973-3.6778z"/><path d="m330.98 98.525c4.1776-3.5692 8.088-6.8923 8.6898-7.3846l1.0941-0.89513 22.027-0.0899c12.115-0.04944 22.027-0.01098 22.027 0.08545-3e-5 0.09644-2.7682 2.3488-6.1516 5.0052-3.3834 2.6564-6.9255 5.4423-7.8714 6.1909-0.94589 0.74858-2.3604 1.8598-3.1434 2.4693l-1.4236 1.1082h-42.843z"/><path d="m308.97 144.82c-0.36059-0.93969 0.2691-2.3437 2.9616-6.6034 1.5636-2.4737 3.9869-6.3055 5.3851-8.5151l2.5422-4.0175 0.147 7.0815-2.7653 4.4455c-3.7245 5.9876-3.9468 6.2948-5.219 7.2165-1.231 0.89173-2.7835 1.0914-3.0517 0.3925z"/><path d="m367.1 128.54 0.0113-21.808 3.8913-3.0631c2.1402-1.6847 6.5337-5.1673 9.7632-7.7391 3.2296-2.5718 5.9564-4.676 6.0596-4.676s0.12241 9.4303 0.0426 20.956l-0.14506 20.956-2.5109 2.3724-3.6008-7.1274c-2.9648-5.8686-3.7061-7.1423-4.1973-7.212-0.33549-0.0476-0.65944 0.0793-0.74034 0.29017-0.0791 0.20617 2.3622 5.4174 5.4251 11.581 5.4424 10.951 5.569 11.243 5.569 12.844 0 2.0967-0.59685 3.0196-1.6052 2.4823-0.35405-0.18866-0.79632-0.53193-0.98282-0.76282s-3.2403-6.1995-6.7862-13.264c-3.5459-7.0641-6.6363-13.001-6.8674-13.193-0.51553-0.42785-1.2208-0.19846-1.2208 0.39708 0 0.24129 2.0241 4.467 4.4979 9.3905 2.4738 4.9235 4.4979 9.1266 4.4979 9.3402 0 0.21362-2.2324 2.3199-4.9609 4.6807-2.7285 2.3608-5.2288 4.5332-5.5562 4.8276l-0.59531 0.53529 0.0113-21.808z"/></g></g></svg>
